<?xml version="1.0" standalone="no"?>
<!DOCTYPE svg PUBLIC "-//W3C//DTD SVG 20010904//EN"
 "http://www.w3.org/TR/2001/REC-SVG-20010904/DTD/svg10.dtd">
<svg version="1.0" xmlns="http://www.w3.org/2000/svg"
 width="300.000000pt" height="69.000000pt" viewBox="0 0 300.000000 69.000000"
 preserveAspectRatio="xMidYMid meet">
<metadata>
Created by potrace 1.10, written by Peter Selinger 2001-2011
</metadata>
<g transform="translate(0.000000,69.000000) scale(0.050000,-0.050000)"
fill="#318CE7" stroke="none">
<path d="M5049 1311 c-62 -62 -63 -131 -3 -188 91 -84 234 -34 234 83 -1 140
-135 201 -231 105z"/>
<path d="M5540 1081 l0 -121 -60 0 c-89 0 -94 -173 -5 -184 l55 -6 10 -291
c13 -392 62 -459 329 -459 l111 0 0 100 0 100 -68 0 c-133 0 -132 -3 -132 292
l0 268 100 0 100 0 0 90 0 90 -99 0 -99 0 -6 115 -6 115 -115 6 -115 6 0 -121z"/>
<path d="M270 955 c-340 -140 -289 -415 100 -540 171 -55 201 -72 207 -111 17
-120 -199 -154 -280 -44 -56 75 -257 93 -257 23 0 -135 202 -271 400 -271 412
1 511 421 125 537 -255 76 -305 109 -279 179 35 91 217 84 271 -10 38 -66 213
-88 235 -29 63 163 -309 353 -522 266z"/>
<path d="M1233 951 c-351 -125 -382 -722 -47 -894 149 -76 334 -56 449 49 l45
41 0 -64 0 -63 120 0 120 0 0 470 0 470 -120 0 -120 0 0 -63 0 -64 -45 43
c-105 98 -258 126 -402 75z m333 -215 c154 -79 150 -405 -5 -486 -144 -74
-289 -19 -350 133 -98 244 128 469 355 353z"/>
<path d="M2064 935 c5 -14 67 -225 137 -471 l129 -445 129 5 128 6 84 320 c54
204 90 308 99 286 7 -19 47 -163 87 -320 l73 -286 129 0 129 0 96 330 c53 182
113 391 134 465 l39 135 -109 0 c-70 0 -112 -9 -117 -25 -5 -14 -43 -173 -86
-355 l-77 -330 -89 355 -88 355 -124 0 c-145 0 -117 50 -228 -405 -37 -151
-73 -275 -79 -275 -6 0 -46 153 -89 340 l-77 340 -119 0 c-87 0 -117 -7 -111
-25z"/>
<path d="M3500 943 c0 -10 59 -218 130 -461 72 -244 130 -448 130 -453 0 -5
58 -9 129 -9 l129 0 20 75 c118 457 150 565 162 542 8 -15 48 -160 90 -322
l76 -295 126 0 c102 0 127 6 136 35 298 1022 280 905 145 905 l-106 0 -77
-340 c-42 -187 -83 -340 -90 -340 -7 0 -49 151 -93 335 l-80 335 -127 0 -127
0 -85 -336 c-46 -185 -88 -340 -93 -345 -4 -5 -44 146 -87 336 l-80 345 -114
6 c-63 3 -114 -2 -114 -13z"/>
<path d="M5020 490 l0 -470 120 0 120 0 0 470 0 470 -120 0 -120 0 0 -470z"/>
</g>
</svg>
