<?xml version="1.0" standalone="no"?>
<!DOCTYPE svg PUBLIC "-//W3C//DTD SVG 20010904//EN"
 "http://www.w3.org/TR/2001/REC-SVG-20010904/DTD/svg10.dtd">
<svg version="1.0" xmlns="http://www.w3.org/2000/svg"
 width="600.000000pt" height="531.000000pt" viewBox="0 0 600.000000 531.000000"
 preserveAspectRatio="xMidYMid meet">
<metadata>
Created by potrace 1.10, written by Peter Selinger 2001-2011
</metadata>
<g transform="translate(0.000000,531.000000) scale(0.100000,-0.100000)"
fill="#318CE7" stroke="none">
<path d="M2872 5122 c-57 -59 -107 -113 -111 -120 -5 -8 -217 -224 -472 -480
-757 -761 -1352 -1365 -1377 -1397 -13 -17 -192 -199 -398 -405 -206 -207
-374 -380 -374 -385 0 -6 52 -62 116 -125 l116 -115 331 337 c183 185 550 559
817 830 266 271 637 648 825 839 187 190 405 411 484 492 80 81 148 147 152
147 4 0 131 -125 281 -277 150 -152 527 -533 838 -847 311 -314 633 -641 715
-726 264 -273 776 -790 783 -790 4 0 59 51 121 114 l114 115 -494 503 c-272
276 -548 559 -614 628 -66 68 -383 390 -705 715 -322 324 -688 695 -815 823
-126 127 -229 232 -229 231 -1 0 -47 -48 -104 -107z"/>
<path d="M2964 4071 c-5 -10 -416 -430 -914 -932 -498 -502 -966 -976 -1040
-1053 -74 -77 -316 -322 -537 -546 -222 -223 -403 -410 -403 -416 0 -9 314
-322 485 -484 39 -37 186 -178 329 -315 l258 -249 282 285 c1450 1469 1540
1559 1562 1559 16 0 128 -108 406 -392 210 -216 620 -631 910 -922 l527 -531
133 130 c73 72 189 184 258 249 69 66 220 212 335 325 116 114 240 235 278
270 37 34 67 68 67 74 0 6 -298 310 -663 676 -364 366 -725 731 -802 811 -77
80 -433 441 -790 803 -358 363 -651 663 -653 668 -6 15 -18 10 -28 -10z m556
-1008 c283 -285 659 -667 835 -848 176 -181 484 -494 684 -696 200 -202 368
-375 374 -385 10 -18 14 -14 -153 -167 -30 -28 -139 -133 -241 -234 l-185
-184 -575 578 c-316 318 -639 646 -719 728 -290 301 -545 555 -557 555 -11 0
-763 -752 -1063 -1064 -69 -71 -272 -278 -451 -459 -285 -288 -328 -328 -345
-319 -46 25 -574 538 -574 558 0 7 219 235 488 506 574 581 1454 1474 1736
1763 154 158 203 202 215 195 9 -4 248 -242 531 -527z"/>
</g>
</svg>
